<?xml version="1.0" standalone="no"?>
<!DOCTYPE svg PUBLIC "-//W3C//DTD SVG 20010904//EN"
 "http://www.w3.org/TR/2001/REC-SVG-20010904/DTD/svg10.dtd">
<svg version="1.0" xmlns="http://www.w3.org/2000/svg"
 width="589.000000pt" height="423.000000pt" viewBox="0 0 589.000000 423.000000"
 preserveAspectRatio="xMidYMid meet">
<metadata>
Created by potrace 1.16, written by Peter Selinger 2001-2019
</metadata>
<g transform="translate(0.000000,423.000000) scale(0.100000,-0.100000)"
fill="#ffffff" stroke="none">
<path d="M740 4165 c-150 -31 -249 -84 -355 -190 -124 -124 -183 -244 -205
-417 -6 -53 -10 -572 -10 -1453 0 -1113 3 -1387 14 -1460 50 -326 282 -552
609 -595 57 -7 743 -10 2197 -8 2107 3 2115 3 2185 24 253 74 426 250 498 503
l22 76 3 1400 c3 1501 2 1536 -47 1674 -56 160 -186 308 -335 382 -164 81 67
73 -2351 75 -1769 2 -2172 0 -2225 -11z m4425 -365 c82 -42 137 -103 165 -183
18 -51 20 -82 20 -309 l-1 -253 -97 -70 c-90 -64 -824 -599 -1677 -1221 -198
-145 -384 -275 -415 -290 -78 -38 -144 -54 -230 -54 -87 0 -132 11 -215 52
-67 33 -72 36 -985 703 -360 263 -780 568 -932 679 l-277 201 -1 251 c0 289 6
324 73 407 47 57 121 103 189 116 24 5 1004 8 2179 7 l2136 -1 68 -35z m-3169
-2246 c259 -189 498 -359 530 -379 234 -142 601 -137 836 11 40 25 457 328
1561 1132 l427 312 -2 -1003 -3 -1002 -28 -53 c-35 -67 -90 -122 -153 -153
l-49 -24 -2180 0 -2180 0 -50 24 c-63 32 -124 92 -155 156 l-25 50 -3 1002 -2
1002 502 -366 c277 -201 715 -520 974 -709z"/>
</g>
</svg>
