<?xml version="1.0" standalone="no"?>
<!DOCTYPE svg PUBLIC "-//W3C//DTD SVG 20010904//EN"
 "http://www.w3.org/TR/2001/REC-SVG-20010904/DTD/svg10.dtd">
<svg version="1.0" xmlns="http://www.w3.org/2000/svg"
 width="402.000000pt" height="533.000000pt" viewBox="0 0 402.000000 533.000000"
 preserveAspectRatio="xMidYMid meet">
<metadata>
Created by potrace 1.16, written by Peter Selinger 2001-2019
</metadata>
<g transform="translate(0.000000,533.000000) scale(0.100000,-0.100000)"
fill="#ffffff" stroke="none">
<path d="M1820 5265 c-198 -18 -431 -80 -604 -160 -42 -19 -78 -35 -81 -35
-13 0 -192 -113 -275 -174 -121 -89 -315 -283 -408 -408 -40 -53 -72 -100 -72
-104 0 -4 -11 -21 -24 -38 -67 -89 -179 -360 -231 -560 -16 -66 -41 -252 -51
-391 -13 -187 44 -469 151 -750 86 -223 271 -591 391 -777 24 -37 44 -70 44
-73 0 -6 127 -217 160 -265 26 -38 194 -291 205 -309 6 -9 24 -36 42 -61 18
-25 53 -74 78 -110 149 -213 172 -246 244 -346 35 -49 70 -94 78 -102 7 -7 18
-23 24 -34 6 -12 30 -45 53 -73 22 -29 51 -66 62 -81 12 -16 50 -65 85 -108
35 -43 74 -94 86 -112 27 -40 114 -99 178 -121 81 -27 178 -6 268 61 26 19
149 164 187 221 8 12 29 40 47 61 18 22 42 54 55 72 13 17 57 77 98 133 109
147 164 223 175 241 14 22 101 143 147 204 21 28 38 56 38 61 0 6 6 16 14 22
14 12 105 146 231 341 37 58 79 123 94 145 15 22 32 51 39 65 7 14 26 45 42
70 16 25 33 52 36 60 4 8 27 47 50 86 24 39 44 73 44 77 0 3 14 30 31 59 27
45 80 143 134 245 53 100 186 421 205 493 83 318 88 340 94 450 10 166 -8 370
-44 515 -51 206 -70 265 -105 340 -19 40 -35 76 -35 80 0 17 -119 217 -172
290 -254 348 -588 590 -987 716 -178 56 -238 69 -411 84 -182 17 -229 17 -410
0z m430 -326 c149 -22 312 -67 418 -115 41 -19 78 -34 82 -34 12 0 211 -119
228 -137 8 -8 31 -25 51 -38 99 -63 331 -320 397 -440 12 -22 37 -67 55 -100
34 -60 43 -82 97 -230 54 -147 101 -464 87 -595 -17 -170 -109 -472 -202 -668
-66 -140 -160 -326 -181 -362 -12 -19 -28 -48 -35 -65 -8 -16 -47 -84 -87
-150 -40 -66 -80 -133 -89 -150 -9 -16 -34 -57 -56 -90 -21 -33 -48 -76 -58
-95 -11 -19 -33 -51 -48 -70 -16 -19 -29 -38 -29 -42 0 -5 -22 -39 -50 -77
-27 -38 -50 -73 -50 -78 0 -4 -15 -26 -32 -48 -18 -21 -42 -53 -53 -71 -26
-42 -133 -190 -149 -206 -7 -7 -21 -26 -32 -43 -10 -16 -37 -53 -59 -82 -40
-50 -170 -225 -211 -283 -12 -16 -40 -51 -63 -78 -22 -28 -41 -53 -41 -56 0
-4 -24 -35 -54 -70 l-54 -64 -25 26 c-25 29 -212 269 -237 306 -8 13 -40 56
-71 97 -47 63 -98 131 -226 304 -12 17 -50 71 -84 120 -34 50 -65 92 -68 95
-7 6 -76 108 -106 157 -11 18 -38 58 -59 90 -97 145 -126 189 -126 195 0 4
-14 28 -31 53 -79 116 -412 758 -434 835 -4 14 -13 39 -20 55 -47 107 -60 144
-95 267 -56 199 -65 272 -51 426 13 132 15 147 58 322 29 120 105 305 163 397
22 34 40 65 40 68 0 14 145 189 217 261 171 171 336 277 582 375 100 41 295
84 444 99 89 9 244 4 347 -11z"/>
<path d="M1886 4125 c-103 -20 -255 -84 -324 -137 -57 -44 -162 -145 -162
-155 0 -3 -16 -25 -35 -48 -40 -49 -107 -195 -131 -287 -23 -87 -23 -273 1
-353 67 -235 193 -408 378 -523 117 -73 267 -113 416 -113 280 1 519 127 673
357 60 90 70 111 107 226 54 170 52 305 -9 487 -88 266 -310 471 -581 536 -96
23 -240 27 -333 10z m326 -347 c111 -41 216 -146 277 -278 23 -50 26 -66 25
-181 0 -126 0 -126 -38 -204 -80 -162 -228 -268 -392 -281 -94 -8 -198 7 -256
37 -132 67 -218 165 -260 294 -31 97 -31 215 0 312 42 130 158 255 277 298 89
32 98 34 205 30 71 -2 112 -9 162 -27z"/>
</g>
</svg>
