<svg xmlns="http://www.w3.org/2000/svg" xmlns:xlink="http://www.w3.org/1999/xlink" version="1.1" id="Capa_1" x="0px" y="0px" viewBox="50 588 1011 154" style="enable-background:new 0 0 1080 1080;" xml:space="preserve">

<style type="text/css">
	.st0{fill:#0D6EFD;}
	.st5{font-family:'Gilroy-Light';}
	.st6{font-size:166.2878px;}
</style>
<g>
	
	<text transform="matrix(0.85 0 0 1 89.6853 716.7587)" fill='#ffffff' class="st5 st6">LEARN </text>
	
	<g>
		<path class="st0" d="M896.2,611.3c2.2,1.4,5-0.1,5.1-2.7c0.1-8.9,0.2-17.2-0.2-25.3c-0.3-5.9,1.8-8.4,7.5-9.1    c3.5-0.4,6.9-1.2,11-2.1c2-0.4,4,1.1,4,3.2c0,11.4,0.1,22.1-0.1,32.9c0,1.5-1.6,3.1-2.9,4.3C906.9,625,909,631,901.2,638.9    c-1.6,1.6-4.1,1.8-5.3-0.1c-0.2-0.3-0.4-0.6-0.6-0.9c-10.1-14.7-27.8-21.2-44.3-16.3c-16,4.7-26.5,19.8-28.3,38.1    c-0.9,9.6-2.5,19.9-6.8,28.3c-19.6,38.7-72.7,43.8-100.5,10.3c-0.2-0.3-0.5-0.6-0.8-0.9c-1.4-1.6-4-1.4-5.2,0.4    c-0.2,0.4-0.5,0.7-0.7,1c-18.7,21.7-48.3,27.7-73.3,15.1c-23.7-12-36.3-39.9-30-66.5c6.7-28.2,29.5-46.4,58.3-46.7    c9.9-0.1,19.9,0,30.6,0c2.3,0,3.8,2.2,3.1,4.4c-1.6,4.5-3,8.6-5.2,12.2c-1.4,2.2-5.4,3.6-8.4,3.9c-8.8,0.7-17.7,0-26.4,1.2    c-20.9,2.7-36.5,22-34.7,41.8c2,20.9,19.6,36.1,41,35.5c22.3-0.6,38.7-17.1,39.1-39.1c0.5-25.7,15.2-47.1,38.4-56.1    c21.2-8.2,47.2-1.9,63.7,15.2c3.2,3.3,4.1,5.7,1.3,9.9c-2.1,3.2-3.6,6.8-5.2,10.5c-1,2.4-4.2,2.7-5.7,0.6c-1.1-1.5-2.2-3-3.4-4.5    c-11.3-13.8-30.8-18.4-46.4-10.9c-16.3,7.8-25.3,26.2-21.5,44.1c3.8,18.2,18.5,30.3,37,30.7c17.7,0.4,34.9-12.1,39.2-28.7    c1-4,1-8.2,1.3-12.3c1.7-23.3,12.1-41.4,33.2-51.7C855.6,597.1,876.5,598.4,896.2,611.3C896.2,611.3,896.2,611.3,896.2,611.3z"/>
		<path class="st0" d="M909.5,698.5c-32.4,34.4-75.4,23.4-92.6,1.3c-0.9-1.1-1.1-2.7-0.4-4c1.9-4.1,3.9-8.2,5.9-12.5    c1.3-2.7,5-3,6.7-0.5c0.2,0.3,0.4,0.6,0.6,0.9c9.6,14.6,26,20.8,42.6,16.3c16.7-4.6,29.1-19.9,29.8-36.7    c1.4-34.4,21.4-57.4,53.7-61.9c34.2-4.8,68,24.9,67.5,59.2c-0.1,8.6-1.9,10.4-10.6,10.5c-26.2,0.1-52.4,0-78.5,0    c-1.4,0-2.9,0-4.5,0c-2.6,0-4.5,2.6-3.6,5.1c3.3,9.3,8.6,16.2,16.9,19.7c8.4,3.5,17.7,5,27.3,7.3c1.7,0.4,2.9,2,2.9,3.7v9.7    c0,2-1.6,3.7-3.6,3.8c-21.6,1.7-39.9-4.8-54.5-21.8C913.7,696.9,911.1,696.8,909.5,698.5z M995.2,649.8c2.7,0,4.5-2.8,3.5-5.3    c-6.3-15.6-24-26-41.3-24c-14.5,1.6-27.8,12.7-30.6,24.5c-0.6,2.4,1.2,4.8,3.7,4.8H995.2z"/>
	</g>
	
</g>
</svg>