<svg xmlns="http://www.w3.org/2000/svg" xmlns:xlink="http://www.w3.org/1999/xlink" version="1.1" id="Capa_1" x="0px" y="0px" viewBox="300 200 470 370" style="enable-background:new 0 0 1080 1080;" xml:space="preserve">
<defs>
	<linearGradient id="SVGID_1_" gradientUnits="userSpaceOnUse" x1="348.9745" y1="379.847" x2="533.3929" y2="379.847">
		<stop offset="0" style="stop-color:#0255CC"/>
		<stop offset="1" style="stop-color:#0686EF"/>
	</linearGradient>
	<linearGradient id="SVGID_2_" gradientUnits="userSpaceOnUse" x1="539.8412" y1="380.9216" x2="724.2597" y2="380.9216">
		<stop offset="0" style="stop-color:#0255CC"/>
		<stop offset="1" style="stop-color:#0686EF"/>
	</linearGradient>
	<linearGradient id="SVGID_3_" gradientUnits="userSpaceOnUse" x1="304.9106" y1="393.3197" x2="490.298" y2="393.3197">
		<stop offset="0" style="stop-color:#0255CC"/>
		<stop offset="1" style="stop-color:#0686EF"/>
	</linearGradient>
	<linearGradient id="SVGID_4_" gradientUnits="userSpaceOnUse" x1="582.7238" y1="390.1594" x2="768.1111" y2="390.1594">
		<stop offset="0" style="stop-color:#0255CC"/>
		<stop offset="1" style="stop-color:#0686EF"/>
	</linearGradient>
</defs>
<style type="text/css">
	.st0{fill:#0D6EFD;}
	.st1{fill:url(#SVGID_1_);}
	.st2{fill:url(#SVGID_2_);}
	.st3{fill:url(#SVGID_3_);}
	.st4{fill:url(#SVGID_4_);}
	.st5{font-family:'Gilroy-Light';}
	.st6{font-size:166.2878px;}
	.st7{font-size:43.6535px;}
	.st8{fill:#FFFFFF;}
</style>
<g>
	<g>
		<polygon class="st1" points="349,465.6 533.4,545.7 533.4,290.2 349,214   "/>
		<polygon class="st2" points="724.3,215.1 539.8,291.3 539.8,546.7 724.3,466.7   "/>
		<polygon class="st3" points="338.8,248.1 304.9,241 304.9,505.4 490.3,545.7 338.8,477.9   "/>
		<polygon class="st4" points="734.3,244.9 734.3,474.7 582.7,542.5 768.1,502.2 768.1,237.8   "/>
	</g>
	
	
	
	<g>
		<path class="st8" d="M626.7,353.3c-3.8,7.6-7.3,14.7-11.1,22.3c-0.3-1-0.6-1.8-0.8-2.6c-0.9-4-2.2-7.7-4.8-10.9    c-8.3-10.7-22.5-9.4-28.8,2.6c-2.5,4.8-3.5,9.9-4.1,15.1c-1,9.4-0.9,18.8,1.5,28.1c1.6,6.2,4.2,11.9,9.5,15.9    c10.4,7.9,25.2,3.1,29.2-9.6c0.9-2.8,1.3-5.8,1.9-8.7c0.3-1.4,0.5-2.7,2.3-2.6c1.7,0.1,2,1.5,2.1,2.9c0.3,11.2-5.1,24.7-20.8,26.5    c-10.2,1.1-19.6-0.6-27.5-7.6c-5.8-5.2-9.2-11.8-10.9-19.4c-2.4-11.1-2.5-22.2,1.9-32.9c3.8-9.2,9.8-16.6,19.3-20.4    c8-3.3,16-2.4,24,0.2c2,0.7,3.9,1.4,5.9,2c3.3,1,6.7,1.3,9.8-0.6C625.6,353.3,626.1,353.4,626.7,353.3z"/>
		<path class="st8" d="M493.7,351.9c9.9,0,19.2,0,28.7,0c-2.4,2.5-4.8,4.8-7,7.2c-0.6,0.7-1.2,1.8-1.2,2.6    c-0.1,20.8-0.1,41.6,0,62.4c0,0.5,0.1,0.9,0.1,1.6c1,0.1,1.9,0.2,3.2,0.3c0-1,0-1.8,0-2.6c0-20.2,0-40.3,0-60.5    c0-1.5,0.4-2.6,1.5-3.6c1.7-1.6,3.3-3.3,4.9-5c0.2,0.1,0.5,0.2,0.7,0.3c-0.1,0.6,0,1.3-0.3,1.6c-1.1,1.3-2.3,2.6-3.6,3.7    c-1.2,1-1.6,2.2-1.6,3.8c0.1,19.9,0,39.8,0,59.7c0,0.8,0,1.5,0,2.5c6.1,0.6,12.1,0.7,17.6-2.4c5.8-3.2,7.6-9,9.1-15.3    c1.8,4.2,3.2,8,5.1,11.7c1.8,3.6,4,7,6.1,10.5c-20.7,0-41.6,0-63.1,0c1.9-1.5,3.4-3,5.1-4.1c2.5-1.6,3.3-3.7,3.3-6.7    c-0.2-19.3-0.1-38.5,0-57.8c0-1.5-0.4-2.6-1.6-3.5C498.3,356.2,496.2,354.2,493.7,351.9z"/>
		<path class="st8" d="M638.2,426.9c0-2-0.1-3.7,0.1-5.4c0.1-0.6,0.9-1.3,1.5-1.7c10.7-6.9,21.4-13.8,32.1-20.7    c0.6-0.4,1.1-0.8,1.9-1.3c-0.8-0.5-1.4-1-2-1.4c-10.6-7.2-21.2-14.4-31.9-21.5c-1.3-0.9-1.8-1.8-1.7-3.4c0.1-4.6,0-9.3,0-14.2    c0.7,0.4,1.2,0.6,1.7,1c16.4,11.1,32.8,22.2,49.2,33.3c2.2,1.5,2.2,1.7,0,3.1c-16.4,10.4-32.9,20.9-49.3,31.3    C639.3,426.2,638.9,426.5,638.2,426.9z"/>
		<path class="st8" d="M425.4,357.4c0.7,4.2-0.4,6.8-4.2,9.1c-10,5.9-19.6,12.5-29.4,18.8c-0.6,0.4-1.1,0.8-1.9,1.3    c0.9,0.6,1.6,1.1,2.3,1.6c10.5,7,20.9,14.1,31.4,21.1c1.5,1,2,2,1.9,3.7c-0.1,4.6,0,9.1,0,14c-0.7-0.4-1.2-0.6-1.7-1    c-16.5-11.1-32.9-22.2-49.4-33.4c-1.9-1.3-1.9-1.6-0.2-2.7c16.8-10.7,33.5-21.3,50.3-32C424.8,357.7,425,357.6,425.4,357.4z"/>
		<path class="st8" d="M427.9,441.2c2.4-4,4.7-7.9,7-11.8c17.1-28.5,34.3-57,51.4-85.5c1.2-2.1,2.5-3.1,4.9-2.7c0.7,0.1,1.3,0,2.4,0    c-0.6,1-0.9,1.7-1.3,2.4c-19,31.6-38,63.1-57,94.7C433.2,441.9,432.5,442.2,427.9,441.2z"/>
		<path class="st8" d="M496.7,343.3c1.5,0.9,0.7,1.8,0.2,2.6c-6.3,10.5-12.6,21-18.9,31.5c-13.4,22.3-26.9,44.6-40.2,67    c-1.1,1.8-2.2,2.6-4.2,2.3c-1-0.1-2,0.1-2.9-0.1c-0.6-0.1-1.2-0.7-1.7-1c0.1-0.2,0.2-0.4,0.3-0.6c1.6,0,3.2,0.1,4.7-0.1    c0.8-0.1,1.8-0.6,2.2-1.3c13.6-22.5,27.1-45,40.7-67.4c6.4-10.7,12.8-21.4,19.3-32C496.2,344,496.4,343.7,496.7,343.3z"/>
		<path class="st8" d="M609.1,363.9c-2.3-1.2-4.4-2.5-6.6-3.3c-6.1-2.1-11.8,0.1-15.2,5.6c-2.9,4.9-3.9,10.3-4.3,15.9    c-0.6,8.2-0.5,16.5,1.5,24.6c1.8,7.6,4.6,14.5,12.3,18.4c-2.5,0.1-5.1-1.4-7.3-3.9c-3.6-4.1-5.6-8.9-6.7-14.1    c-2.7-11.9-2.9-23.8,0.4-35.6c0.8-3,2.4-6.1,4.4-8.6C593,356.3,604,356.8,609.1,363.9z"/>
		<path class="st8" d="M551.7,410.9c0.5,0.6,1.2,1.1,1.6,1.8c3.1,5.3,6.1,10.7,9.3,15.9c0.7,1.1,0.6,1.8,0.2,3c-1.1,3.2-3,4-6.3,4    c-19.3-0.2-38.7-0.1-58-0.1c-1,0-2-0.5-3-0.8c0.1-0.3,0.1-0.5,0.2-0.8c0.7,0,1.5,0,2.2,0c20,0,40.1,0,60.1,0    c1.1,0,2.2,0.3,2.7-1.2c0.5-1.4,1.5-2.6,0.1-4.3c-4-4.8-7-10.3-9.3-16.1c-0.1-0.3-0.2-0.6-0.3-0.9    C551.4,411.2,551.5,411,551.7,410.9z"/>
		<path class="st8" d="M582.1,432c10.6,4.5,20.9,5.9,31,0.6c10.7-5.5,13.6-15.5,14.1-26.7c0.2-0.1,0.4-0.1,0.6-0.2    c0.4,0.5,1.2,1.1,1.2,1.6c-0.7,8.4-2.6,16.5-8.8,22.7c-6.5,6.5-14.8,8.1-23.6,7.4C590.6,436.8,585.5,434.8,582.1,432z"/>
		<path class="st8" d="M631,356.7c-3.7,7.2-7.5,14.4-11.3,21.7c-1.2-0.1-1.5-0.7-0.9-1.9c3.5-6.5,6.9-13.1,10.4-19.5    c0.2-0.4,1-0.5,1.5-0.8C630.9,356.3,631,356.5,631,356.7z"/>
	</g>
</g>
</svg>