<?xml version="1.0" standalone="no"?>
<!DOCTYPE svg PUBLIC "-//W3C//DTD SVG 20010904//EN"
 "http://www.w3.org/TR/2001/REC-SVG-20010904/DTD/svg10.dtd">
<svg version="1.0" xmlns="http://www.w3.org/2000/svg"
 width="514.000000pt" height="485.000000pt" viewBox="0 0 514.000000 485.000000"
 preserveAspectRatio="xMidYMid meet">
<metadata>
Created by potrace 1.16, written by Peter Selinger 2001-2019
</metadata>
<g transform="translate(0.000000,485.000000) scale(0.100000,-0.100000)"
fill="#ffffff" stroke="none">
<path d="M1640 4770 c-14 -4 -52 -13 -85 -19 -66 -13 -230 -48 -370 -80 -49
-11 -108 -23 -130 -26 -22 -4 -75 -16 -117 -26 -43 -11 -90 -21 -105 -23 -16
-2 -59 -11 -98 -21 -38 -9 -81 -19 -95 -21 -114 -21 -231 -100 -272 -184 -43
-88 -51 -143 -45 -302 14 -358 65 -708 142 -973 13 -44 27 -96 30 -115 4 -19
11 -41 16 -50 5 -8 17 -42 28 -75 33 -100 61 -178 80 -220 10 -22 29 -65 42
-95 31 -72 167 -341 183 -360 6 -8 18 -28 26 -45 8 -16 22 -41 31 -55 46 -68
154 -236 158 -245 9 -20 214 -276 301 -375 51 -58 127 -139 169 -180 111 -108
352 -320 365 -320 3 0 19 -12 36 -26 41 -37 355 -254 367 -254 2 0 36 -20 76
-43 39 -24 86 -51 102 -59 182 -92 362 -178 371 -178 7 0 172 -64 221 -86 17
-8 36 -14 42 -14 6 0 37 -9 68 -19 359 -118 803 -194 1148 -195 199 -1 269 19
355 104 56 55 94 134 115 238 9 42 22 100 29 127 8 28 17 68 20 90 3 22 12 65
20 96 8 30 17 75 20 100 3 24 14 76 25 114 15 56 32 144 33 175 0 3 5 16 10
30 19 51 60 277 60 335 -1 96 -32 166 -112 244 -48 47 -85 74 -131 93 -65 27
-108 46 -234 100 -38 16 -95 40 -125 53 -30 13 -109 46 -175 75 -66 28 -142
61 -170 72 -27 11 -68 29 -90 38 -22 10 -71 31 -110 48 -149 65 -182 74 -258
70 -48 -2 -87 -11 -118 -26 -25 -12 -50 -22 -56 -22 -10 0 -134 -129 -183
-190 -14 -18 -33 -42 -44 -53 -10 -12 -35 -42 -55 -67 -20 -25 -38 -47 -41
-50 -3 -3 -20 -24 -39 -47 -18 -24 -36 -43 -40 -43 -7 0 -194 119 -216 137 -5
5 -26 20 -45 33 -19 13 -40 29 -46 35 -7 5 -26 21 -44 35 -119 94 -345 319
-416 415 -16 22 -38 50 -48 62 -11 13 -59 82 -107 153 l-88 130 23 25 c13 14
28 25 33 25 5 0 20 12 34 26 13 15 47 43 74 64 28 21 65 52 83 69 18 16 39 34
47 39 8 4 45 37 82 72 47 46 75 84 96 130 27 60 29 71 25 160 -2 56 -10 109
-20 130 -20 45 -77 176 -93 215 -7 17 -25 57 -40 89 -15 33 -28 64 -29 70 -1
6 -11 31 -23 56 -41 87 -73 161 -73 168 0 4 -11 29 -25 56 -14 27 -25 53 -25
57 0 5 -12 34 -26 66 -14 32 -32 72 -39 88 -8 17 -28 61 -44 99 -17 38 -31 73
-31 78 0 20 -82 107 -128 137 -93 60 -209 85 -282 61z m106 -304 c19 -13 32
-40 92 -181 13 -33 33 -78 43 -100 35 -79 74 -170 75 -175 0 -3 10 -25 21 -50
40 -84 73 -161 73 -167 0 -3 11 -29 24 -57 12 -28 33 -76 46 -106 13 -30 33
-77 46 -105 43 -97 54 -128 54 -151 0 -25 2 -23 -235 -214 -180 -144 -165
-132 -190 -161 -54 -65 -70 -111 -69 -199 0 -110 8 -126 161 -355 85 -126 177
-246 199 -258 7 -4 14 -12 14 -17 0 -11 294 -310 304 -310 3 0 14 -8 24 -18
28 -26 63 -55 102 -82 19 -13 40 -28 45 -33 6 -4 35 -26 65 -48 30 -21 60 -42
65 -47 46 -34 123 -79 205 -119 82 -39 174 -38 255 4 62 32 90 55 137 114 15
19 69 86 120 150 51 63 107 132 123 153 39 49 67 60 108 42 18 -8 66 -29 107
-46 41 -18 89 -38 105 -45 17 -8 64 -28 105 -45 41 -18 127 -54 190 -82 63
-27 135 -58 160 -68 51 -21 284 -122 348 -151 51 -23 53 -35 31 -149 -24 -126
-52 -254 -95 -435 -3 -11 -9 -45 -14 -75 -4 -30 -13 -67 -18 -81 -6 -15 -8
-29 -6 -32 3 -3 1 -14 -4 -24 -5 -10 -12 -36 -15 -58 -2 -22 -15 -80 -27 -130
-12 -49 -23 -100 -26 -112 -2 -12 -12 -29 -21 -39 -16 -15 -36 -16 -218 -10
-192 6 -280 14 -410 36 -33 6 -80 13 -105 16 -60 7 -237 49 -395 92 -79 22
-143 44 -230 78 -33 13 -63 24 -68 24 -4 0 -30 11 -59 25 -28 14 -56 25 -61
25 -12 0 -327 157 -347 173 -8 7 -28 19 -44 26 -16 6 -52 27 -80 45 -28 18
-78 50 -111 70 -110 68 -305 213 -391 291 -6 5 -44 39 -84 75 -238 211 -462
475 -647 764 -29 44 -57 90 -63 101 -6 11 -23 43 -40 70 -16 28 -51 93 -78
145 -27 52 -54 104 -60 115 -21 39 -78 172 -125 295 -63 166 -147 474 -172
630 -3 19 -7 44 -9 55 -17 92 -36 236 -40 310 -18 302 -19 334 -6 364 7 18 22
33 34 36 11 2 71 15 131 29 112 26 279 62 440 95 50 11 133 29 185 40 52 11
131 28 175 37 44 9 82 18 84 20 9 9 48 3 67 -10z"/>
</g>
</svg>
